<?xml version="1.0" encoding="UTF-8" standalone="no"?>
<svg
   xmlns:dc="http://purl.org/dc/elements/1.1/"
   xmlns:cc="http://creativecommons.org/ns#"
   xmlns:rdf="http://www.w3.org/1999/02/22-rdf-syntax-ns#"
   xmlns:svg="http://www.w3.org/2000/svg"
   xmlns="http://www.w3.org/2000/svg"
   xmlns:sodipodi="http://sodipodi.sourceforge.net/DTD/sodipodi-0.dtd"
   xmlns:inkscape="http://www.inkscape.org/namespaces/inkscape"
   width="298"
   height="300"
   viewBox="0 0 434 437"
   version="1.0"
   id="svg2684"
   sodipodi:version="0.32"
   inkscape:version="0.46"
   sodipodi:docname="University_of_Hyderabad_Logo.svg"
   inkscape:output_extension="org.inkscape.output.svg.inkscape">
  <metadata
     id="metadata2855">
    <rdf:RDF>
      <cc:Work
         rdf:about="">
        <dc:format>image/svg+xml</dc:format>
        <dc:type
           rdf:resource="http://purl.org/dc/dcmitype/StillImage" />
      </cc:Work>
    </rdf:RDF>
  </metadata>
  <defs
     id="defs2853">
    <inkscape:perspective
       sodipodi:type="inkscape:persp3d"
       inkscape:vp_x="0 : 273.125 : 1"
       inkscape:vp_y="0 : 1000 : 0"
       inkscape:vp_z="542.5 : 273.125 : 1"
       inkscape:persp3d-origin="271.25 : 182.08333 : 1"
       id="perspective2857" />
  </defs>
  <sodipodi:namedview
     inkscape:window-height="669"
     inkscape:window-width="640"
     inkscape:pageshadow="2"
     inkscape:pageopacity="0.0"
     guidetolerance="10.0"
     gridtolerance="10.0"
     objecttolerance="10.0"
     borderopacity="1.0"
     bordercolor="#666666"
     pagecolor="#ffffff"
     id="base"
     showgrid="false"
     inkscape:zoom="0.84576659"
     inkscape:cx="271.25"
     inkscape:cy="273.125"
     inkscape:window-x="115"
     inkscape:window-y="95"
     inkscape:current-layer="svg2684" />
  <g
     id="#fefefeff" />
  <g
     id="#020202ff">
    <path
       d="M 120.94,27.88 C 146.45,13.17 175.53,4.99 204.89,3.4 C 211.25,3.36 217.61,3.37 223.98,3.41 C 250.88,4.98 277.62,11.85 301.45,24.56 C 344.84,46.84 378.69,86.79 393.81,133.14 C 400.63,154.67 404.02,177.33 403.06,199.92 C 401.69,224.64 396.34,249.45 385.41,271.75 C 392.03,267.54 400.43,266.1 407.99,268.38 C 416.53,270.91 424.04,277.5 426.74,286.13 C 428.6,292.35 428.47,299.21 426.26,305.32 C 410.09,335.32 387.61,361.92 360.53,382.65 C 329.83,406.29 293.31,422.39 255.06,428.78 C 217.61,435.41 178.67,432.54 142.37,421.36 C 85.76,403.76 36.36,364.31 6.65,313.01 C 1.34,301.44 6.04,286.74 16.54,279.77 C 25.2,273.8 37.4,273.58 46.44,278.81 C 25.64,239.06 20.15,191.71 30.61,148.15 C 33.98,132.01 40.52,116.71 48.08,102.13 C 64.9,71.3 90.36,45.18 120.94,27.88 M 149.44,18.15 C 149.48,18.6 149.55,19.51 149.59,19.97 C 149.49,19.58 149.27,18.81 149.17,18.43 C 135.2,23.98 121.57,30.6 109.3,39.34 C 67.01,68.14 37.5,115.25 30.76,166.04 C 24.85,207.12 33.11,250.19 54.42,285.87 C 57.83,290.92 60.36,297.06 65.88,300.22 C 72.61,304.39 81.66,304.5 88.4,300.31 C 95.36,296.22 99.76,288.13 99.28,280.06 C 99.28,275.66 96.42,272.06 94.21,268.5 C 66.65,226.23 64.58,168.97 88.84,124.75 C 104.67,95.15 131.32,71.26 162.8,59.47 C 163.52,58.91 164.05,58.21 164.4,57.36 C 164.64,57.6 165.12,58.09 165.36,58.33 C 184.89,51.42 205.86,48.26 226.52,50.25 C 258.72,53.01 289.97,66.96 313.02,89.68 C 340.26,115.43 356.23,152.53 356.65,189.96 C 357.01,210.17 352.86,230.41 344.8,248.94 C 341.7,257.14 336.58,264.33 332.48,272.02 C 328.19,284.58 338.97,298.71 351.87,299.45 C 360.6,300.43 369.69,295.32 373.19,287.22 C 373.56,287.35 374.31,287.6 374.68,287.73 C 374.45,287.44 374,286.88 373.77,286.59 C 383.55,269.64 391.36,251.38 395.2,232.14 C 404.17,191.76 399.35,148.27 381.02,111.13 C 368.29,84.58 348.83,61.4 325.36,43.69 C 296.47,22.05 261.17,8.91 225.07,7.16 C 199.44,5.47 173.62,9.65 149.44,18.15 M 127.55,83.72 C 101.89,104.02 83.85,133.8 77.91,165.99 C 73.19,190.25 75.38,215.66 83.48,238.95 C 87.36,249.81 92.84,260 99.06,269.68 C 107.35,280.72 101.08,297.51 89.64,303.69 C 82.84,307.71 74.53,307.65 67.2,305.22 C 73.68,312.66 79.86,320.43 87.27,326.99 C 101.19,340.12 117.13,351.17 134.45,359.32 C 182.47,382.57 240.79,383.4 289.41,361.45 C 319.07,348.47 345.07,327.31 364.07,301.12 C 360.47,302.17 356.82,303.4 353.01,303.2 C 345.33,302.84 337.79,299.04 333.22,292.8 C 328.66,287.18 327.28,279.47 328.57,272.46 C 329.36,269.33 331.33,266.7 332.95,263.96 C 337.02,257.44 340.52,250.54 343.28,243.36 C 343.71,243.41 344.56,243.51 344.99,243.56 C 344.63,243.47 343.92,243.3 343.56,243.21 C 346.42,234.56 349.43,225.9 350.87,216.87 C 353.41,203.1 353.53,188.93 352.06,175.04 C 347.27,134.32 323.25,96.24 288.29,74.77 C 288.35,74.32 288.49,73.42 288.55,72.98 C 288.43,73.36 288.17,74.13 288.04,74.51 C 268.62,62.11 245.94,54.99 222.97,53.57 C 188.9,51.31 154.06,62.14 127.55,83.72 M 380.18,282.28 C 376.05,290.2 371.15,297.69 365.74,304.78 C 366.01,304.91 366.57,305.16 366.85,305.28 C 366.49,305.3 365.78,305.32 365.42,305.33 C 338.41,341.37 298.23,367.49 254.05,376.64 C 224.78,383 194.04,382.07 165.09,374.44 C 127.98,364.53 94.16,342.86 69.52,313.39 C 62.63,305.41 56.96,296.49 51.17,287.7 C 45.39,280.15 34.9,276.75 25.78,279.41 C 14.76,282.23 6.67,293.63 7.83,304.98 C 7.92,310.38 12,314.34 14.31,318.9 C 42.33,362.85 85.01,397.53 134.28,414.79 C 134.33,414.42 134.42,413.67 134.47,413.3 C 134.65,413.96 134.83,414.64 135,415.31 C 173.46,428.68 215.33,432.24 255.43,425.1 C 277.41,421.66 298.61,414.19 318.62,404.6 C 362.57,383.08 399.39,347.52 422.67,304.51 C 425.81,297.88 425.31,289.83 421.72,283.49 C 417.29,275.04 407.39,269.97 397.95,271.05 C 390.81,271.82 383.61,275.81 380.18,282.28 z"
       id="path2688"
       style="opacity:1;fill:#020202" />
    <path
       d="M 219.48,17.66 C 219.59,16.36 219.71,15.05 219.82,13.74 C 226.63,14.57 233.49,14.88 240.31,15.67 C 240.29,18.71 240.21,21.74 240.04,24.77 C 238.72,24.79 237.4,24.81 236.08,24.82 C 235.85,23.06 235.62,21.3 235.4,19.54 C 233.15,19.07 230.87,18.73 228.57,18.56 C 228.16,22.19 227.75,25.81 227.46,29.45 C 229.48,29.76 231.52,30.01 233.57,29.79 C 233.68,29.08 233.9,27.66 234,26.95 C 235.33,27.18 236.66,27.42 237.98,27.67 C 237.26,31 237.18,34.42 236.95,37.81 C 235.71,37.78 234.47,37.74 233.23,37.71 C 233.13,36.58 233.04,35.45 232.94,34.32 C 230.93,33.98 228.91,33.66 226.89,33.38 C 226.79,36.7 226.6,40.01 226.16,43.3 C 227.15,43.4 229.14,43.61 230.13,43.72 C 230.24,43.36 230.47,42.63 230.59,42.26 C 230.74,44.06 230.84,45.87 230.74,47.68 C 226.06,47.15 221.38,46.56 216.66,46.45 C 216.85,45.27 217.04,44.08 217.25,42.91 C 218.21,42.6 220.25,43.61 220.28,42.01 C 221.05,33.99 221.57,25.94 222.53,17.94 C 221.77,17.87 220.24,17.73 219.48,17.66 z"
       id="path2690"
       style="opacity:1;fill:#020202" />
    <path
       d="M 190.43,15.62 C 195.12,13.66 201.14,13.9 204.91,17.64 C 210.96,23.34 211.8,33.15 208.47,40.5 C 204.82,48.64 192.72,50.91 186.35,44.65 C 178.49,36.72 179.44,20.35 190.43,15.62 M 192.15,19.24 C 188.82,21.15 187.91,25.4 187.66,28.93 C 187.84,33.54 188.36,38.76 191.75,42.23 C 193.97,44.67 198.22,45.18 200.75,42.92 C 203.3,40.74 203.8,37.22 204.05,34.07 C 203.91,29.24 202.96,24.1 199.75,20.31 C 197.83,18.2 194.61,17.96 192.15,19.24 z"
       id="path2692"
       style="opacity:1;fill:#020202" />
    <path
       d="M 267.75,21.59 C 271.38,23.49 275.29,24.75 279.03,26.38 C 278.55,27.5 278.04,28.62 277.53,29.73 C 276.56,29.33 275.6,28.93 274.63,28.52 C 273.19,31.53 272.02,34.66 270.56,37.66 C 274.13,39.22 277.7,40.8 281.29,42.32 C 282.63,39.28 283.8,36.16 285.13,33.11 C 284.1,32.61 283.07,32.12 282.04,31.62 C 282.52,30.43 283,29.25 283.48,28.06 C 287.32,29.72 291.26,31.11 295.03,32.93 C 294.45,34.09 293.88,35.27 293.32,36.44 C 292.37,36.17 291.21,34.74 290.49,36.19 C 287.47,43.63 284.23,50.99 281.27,58.46 C 281.93,58.74 283.25,59.29 283.91,59.57 C 283.51,60.72 283.1,61.86 282.69,63 C 278.77,61.62 274.92,60.03 271.06,58.49 C 271.5,57.35 271.96,56.21 272.43,55.07 C 273.64,55.33 274.86,55.58 276.08,55.81 C 277.25,52.46 278.54,49.15 279.78,45.82 C 276.18,44.45 272.56,43.14 268.96,41.78 C 267.56,45.03 266.21,48.32 264.9,51.61 C 265.94,52.13 266.99,52.64 268.05,53.16 C 267.6,54.33 267.19,55.5 266.77,56.67 C 262.93,55.15 259.17,53.46 255.28,52.08 C 255.68,50.8 256.2,49.58 256.83,48.4 C 257.52,48.56 258.89,48.88 259.58,49.03 C 262.61,41.52 265.41,33.91 268.75,26.53 C 268.07,26.16 266.7,25.4 266.02,25.03 C 266.59,23.88 267.17,22.74 267.75,21.59 z"
       id="path2694"
       style="opacity:1;fill:#020202" />
    <path
       d="M 146.01,27.34 C 149.1,26.03 152.19,24.72 155.23,23.29 C 155.8,24.44 156.38,25.6 156.95,26.75 C 156.4,27.02 155.31,27.56 154.76,27.82 C 154.35,33.84 153.65,39.83 153.42,45.86 C 154.08,48.7 155.56,51.25 156.66,53.93 C 157.88,53.49 159.1,53.03 160.32,52.57 C 160.8,53.79 161.29,55 161.78,56.22 C 157.64,57.98 153.59,60.06 149.26,61.29 C 148.84,60.16 148.42,59.02 147.99,57.89 C 148.87,57.32 151.22,57.45 150.81,55.88 C 149.49,52.58 148.44,48.85 145.46,46.62 C 141.69,43.5 137.9,40.38 134.06,37.36 C 131.41,38.35 130.63,36.45 130.07,34.34 C 133.91,32.48 137.87,30.86 141.72,29.02 C 142.24,30.29 142.76,31.57 143.29,32.85 C 142.57,33.13 141.14,33.7 140.43,33.98 C 143.31,37.21 146.65,40 149.77,42.99 C 149.97,38.64 150.15,34.29 150.05,29.93 C 149,30.29 147.94,30.64 146.89,31 C 146.58,29.78 146.29,28.56 146.01,27.34 z"
       id="path2696"
       style="opacity:1;fill:#020202" />
    <path
       d="M 303.38,37.71 C 307.04,39.82 310.32,42.5 313.89,44.75 C 313.25,45.82 312.59,46.88 311.94,47.94 C 311,47.39 310.07,46.84 309.14,46.29 C 308.32,50.54 307.43,54.79 306.82,59.08 C 310.62,57.06 314.19,54.65 317.95,52.55 C 317.09,51.79 316.24,51.04 315.39,50.3 C 316.11,49.29 316.84,48.29 317.58,47.28 C 320.51,49.24 323.4,51.25 326.28,53.29 C 325.61,54.32 324.94,55.35 324.28,56.38 C 323.71,56.14 322.57,55.67 322.01,55.43 C 317.44,57.6 313.06,60.17 308.45,62.26 C 304.66,63.71 303.23,67.79 300.86,70.73 C 301.9,71.47 302.95,72.21 304,72.95 C 303.25,74.01 302.51,75.06 301.77,76.12 C 298.06,73.77 294.59,71.08 290.91,68.7 C 291.61,67.6 292.31,66.5 293,65.39 C 293.94,66.03 294.89,66.68 295.83,67.33 C 297.43,64.85 299.29,62.55 300.81,60.02 C 301.66,54.22 302.33,48.38 303.34,42.6 C 302.89,42.18 301.98,41.34 301.53,40.91 C 302.14,39.84 302.75,38.77 303.38,37.71 z"
       id="path2698"
       style="opacity:1;fill:#020202" />
    <path
       d="M 101.48,53.26 C 108.36,48.53 115.14,43.66 122,38.91 C 123.99,41.41 126.01,43.9 127.93,46.48 C 126.81,47.38 125.69,48.28 124.57,49.17 C 123.29,47.76 122,46.35 120.71,44.96 C 119.24,45.81 117.79,46.71 116.43,47.73 C 121.25,54.37 126.08,61.04 130.54,67.93 C 131.61,67.24 132.69,66.57 133.78,65.89 C 134.47,67.02 135.17,68.14 135.85,69.28 C 132.06,71.58 128.68,74.48 124.94,76.88 C 124.3,75.74 123.65,74.61 122.99,73.48 C 123.93,72.76 124.87,72.03 125.81,71.29 C 121.13,64.54 116.04,58.06 111.68,51.09 C 110.34,52.05 109.02,53.05 107.76,54.12 C 108.61,55.89 109.49,57.66 110.42,59.4 C 109.11,60.15 107.74,60.76 106.27,61.09 C 105.67,60.05 105.07,59.01 104.47,57.97 L 105.89,57.55 C 105.48,57.59 104.66,57.69 104.25,57.74 C 103.36,56.22 102.43,54.74 101.48,53.26 z"
       id="path2700"
       style="opacity:1;fill:#020202" />
    <path
       d="M 149.13,74.36 C 181.91,55.73 222.67,52.75 258.23,64.78 C 274.12,70.57 289.3,78.8 301.97,90.1 C 319.85,105.12 333.21,125.21 341.21,147.09 C 353.49,182.4 350.86,222.94 332.79,255.83 C 330.12,261.09 325.99,265.55 323.97,271.14 C 321.05,279.29 322.12,288.78 326.93,296 C 330.76,302.52 337.6,306.66 344.76,308.61 C 344.76,310.02 345.19,311.77 343.94,312.81 C 325.33,332.57 302.29,348.25 276.86,357.83 C 256.47,365.29 234.81,369.41 213.06,369.22 C 164.86,369 117.05,348.22 84.54,312.55 C 82.85,311.38 83.67,309.25 85.53,309.01 C 98.35,306.15 107.66,292.95 106.67,279.96 C 106.44,273.97 103.87,268.32 100.33,263.58 C 90.26,247.66 83.62,229.59 80.92,210.95 C 78.87,191.91 79.42,172.31 85.17,153.91 C 95.01,120.39 118.45,91.1 149.13,74.36 M 188.09,63.56 C 165.84,68.17 144.7,78.51 127.74,93.7 C 95.01,121.87 78.14,167.15 84.36,209.88 C 86.37,225.64 91.76,240.81 99.11,254.84 C 102.13,260.74 107.04,265.65 108.8,272.18 C 112.09,281.85 109.83,292.95 103.69,301 C 99.97,306.11 94.5,309.41 88.83,311.93 C 99.6,323.66 112.39,333.51 126.07,341.61 C 164.65,364.71 212.46,371.45 256.03,360.57 C 288.37,352.8 318.19,335.12 340.86,310.82 C 324.97,306.37 315.15,287.77 320,272.1 C 321.47,265.36 326.73,260.54 329.48,254.41 C 336.76,241.25 341.58,226.79 343.97,211.96 C 345.69,198.35 345.73,184.51 343.74,170.92 C 340.14,148.74 330.49,127.71 316.66,110.06 C 316.26,110.17 315.46,110.38 315.06,110.49 L 316.23,109.72 C 298.98,88.29 274.78,72.42 248.12,65.48 C 247.93,65.79 247.55,66.41 247.36,66.72 C 247.42,66.31 247.54,65.48 247.6,65.07 C 228.18,60.3 207.71,59.57 188.09,63.56 z"
       id="path2702"
       style="opacity:1;fill:#020202" />
    <path
       d="M 330.67,61.92 C 331.56,61.13 332.45,60.35 333.35,59.56 C 338.7,64.87 345.76,69.96 346.6,78.06 C 347.13,88.98 335.41,97.9 325.01,95.17 C 318.28,93.1 314.62,86.59 309.75,82.01 C 310.6,81.14 311.46,80.27 312.32,79.39 C 313.04,80.03 313.76,80.67 314.49,81.31 C 320.7,75.86 326.66,70.13 332.57,64.35 C 332.09,63.74 331.15,62.53 330.67,61.92 M 318.79,85.71 C 320.96,89.5 325.42,91.95 329.78,90.51 C 335.14,88.34 340.1,83.83 341.27,77.96 C 341.96,74.26 339.63,70.91 337.02,68.56 C 330.93,74.26 324.96,80.09 318.79,85.71 z"
       id="path2704"
       style="opacity:1;fill:#020202" />
    <path
       d="M 84.67,69.36 C 87.5,66.12 90.73,63.27 93.89,60.35 C 94.76,61.23 95.64,62.11 96.52,62.99 C 95.74,63.77 94.96,64.54 94.18,65.32 C 99.54,71.45 105.35,77.17 111.13,82.91 C 112.32,82.71 113.12,81.64 114.1,81.02 C 114.87,81.96 115.65,82.91 116.43,83.85 C 113.46,86.8 110.57,89.83 107.61,92.79 C 106.76,91.85 105.91,90.91 105.06,89.97 C 105.72,89.15 106.38,88.33 107.04,87.52 C 101.29,81.71 95.69,75.75 89.88,70.01 C 88.94,70.54 88.1,71.21 87.24,71.86 C 86.39,71.02 85.53,70.19 84.67,69.36 z"
       id="path2706"
       style="opacity:1;fill:#020202" />
    <path
       d="M 69.93,89.96 C 69.88,84.92 73.38,80.52 77.46,77.92 C 79.77,79.65 82.15,81.28 84.63,82.77 C 83.89,84 83.15,85.22 82.42,86.45 C 80.88,85.58 79.34,84.72 77.8,83.85 C 75.7,85.09 74.35,87.08 74.2,89.54 C 75.36,91.15 76.67,93.36 79.01,92.97 C 83.23,92.33 86.48,88.41 90.96,88.73 C 95.94,89.36 100.03,94.02 100.08,99.04 C 99.22,104.07 96.05,108.43 91.89,111.31 C 89.14,109.95 86.54,108.3 83.93,106.69 C 84.68,105.52 84.87,103.8 86.16,103.09 C 87.93,103.65 89.52,104.62 91.1,105.57 C 93.66,104.18 96.73,101.08 95.03,98 C 94.14,95.91 91.92,95.16 89.83,95.01 C 85.59,96.89 81.06,100.65 76.21,98.72 C 72.54,97.6 69.8,93.79 69.93,89.96 z"
       id="path2708"
       style="opacity:1;fill:#020202" />
    <path
       d="M 356.21,90.66 C 357.21,89.99 358.22,89.32 359.22,88.64 C 362.97,94.38 366.47,100.28 370.29,105.98 C 367.91,107.64 365.7,109.65 363.01,110.76 C 361.85,110.2 361.34,108.83 360.5,107.92 C 361.75,106.84 363,105.78 364.28,104.73 C 363.15,102.53 361.93,100.39 360.66,98.28 C 357.88,100.19 355.05,102.01 352.05,103.53 C 353.08,105.27 354.18,106.96 355.31,108.64 C 356.25,108.12 357.19,107.59 358.14,107.06 C 358.72,108.21 359.31,109.37 359.88,110.53 C 356.89,112.19 354.02,114.07 351.09,115.85 C 350.51,114.7 349.39,113.7 349.32,112.37 C 350.09,111.78 350.88,111.22 351.7,110.69 C 350.76,109.05 349.78,107.43 348.75,105.85 C 345.72,107.63 342.89,109.75 339.72,111.28 C 341.03,113.52 342.24,115.89 344.08,117.75 C 345.88,117.54 347.6,116.94 349.35,116.47 C 349.83,117.74 350.34,119.02 350.84,120.29 C 348.06,121.41 345.26,122.49 342.45,123.52 C 338.94,117.67 335.28,111.91 331.43,106.28 C 332.55,105.51 333.68,104.75 334.84,104.02 C 335.21,104.63 335.93,105.85 336.3,106.46 C 343.45,102.34 350.09,97.32 357.43,93.54 C 357.01,92.58 356.61,91.62 356.21,90.66 z"
       id="path2710"
       style="opacity:1;fill:#020202" />
    <path
       d="M 207.58,101.76 C 220.77,99.46 234.74,103.66 244.73,112.5 C 252.14,119.49 257.71,128.79 259,138.99 C 261.1,151.17 257.34,164.03 249.63,173.6 C 242.17,182.8 230.98,189.12 219.09,189.99 C 204.43,191.67 189.52,184.96 180.24,173.66 C 174,165.5 170.17,155.35 170.4,145 C 170.52,132.63 176.27,120.64 185.38,112.36 C 191.66,106.94 199.38,103.16 207.58,101.76 M 205.63,105.71 C 197.97,107.72 190.58,111.5 185.25,117.46 C 175.29,127.5 171.75,142.96 175.38,156.5 C 177.83,164.74 182.44,172.55 189.44,177.72 C 200.15,186.6 215.6,189.13 228.64,184.38 C 237.37,181.07 245.36,175.17 249.94,166.91 C 255.53,158.39 256.99,147.72 255.28,137.8 C 252.64,125.17 244.04,113.49 231.98,108.45 C 223.87,104.46 214.39,103.76 205.63,105.71 z"
       id="path2712"
       style="opacity:1;fill:#020202" />
    <path
       d="M 249.46,104.41 C 251.26,104.36 253.07,104.33 254.87,104.31 C 254.9,106.78 254.9,109.25 254.87,111.73 C 253.07,111.71 251.28,111.68 249.49,111.63 C 249.56,109.22 249.55,106.81 249.46,104.41 z"
       id="path2714"
       style="opacity:1;fill:#020202" />
    <path
       d="M 277.2,104.4 C 278.96,104.41 280.73,104.41 282.5,104.43 C 282.51,106.88 282.52,109.34 282.55,111.79 C 280.75,111.81 278.95,111.82 277.15,111.82 C 277.14,109.34 277.16,106.87 277.2,104.4 z"
       id="path2716"
       style="opacity:1;fill:#020202" />
    <path
       d="M 294.45,104.5 C 296.2,104.47 297.95,104.45 299.71,104.42 C 299.74,106.9 299.73,109.37 299.69,111.84 C 297.95,111.84 296.21,111.82 294.48,111.8 C 294.5,109.37 294.49,106.93 294.45,104.5 z"
       id="path2718"
       style="opacity:1;fill:#020202" />
    <path
       d="M 256.65,104.51 C 258.49,104.5 260.34,104.5 262.19,104.49 C 262.16,107.03 262.13,109.56 262.15,112.1 C 260.35,112.07 258.55,112.04 256.76,112.01 C 256.75,109.51 256.71,107.01 256.65,104.51 z"
       id="path2720"
       style="opacity:1;fill:#020202" />
    <path
       d="M 139.17,106.5 C 140.94,106.5 142.72,106.51 144.49,106.53 C 144.5,108.97 144.51,111.41 144.51,113.85 C 142.71,113.88 140.91,113.87 139.12,113.87 C 139.18,111.41 139.17,108.95 139.17,106.5 z"
       id="path2722"
       style="opacity:1;fill:#020202" />
    <path
       d="M 164.17,106.48 C 165.95,106.49 167.73,106.5 169.51,106.52 C 169.52,108.99 169.51,111.45 169.51,113.92 C 167.7,113.89 165.9,113.85 164.11,113.79 C 164.13,111.35 164.14,108.91 164.17,106.48 z"
       id="path2724"
       style="opacity:1;fill:#020202" />
    <path
       d="M 59.07,108.01 C 64.93,105.07 72.07,110.49 71.68,116.84 C 75.7,115.34 80.04,116.05 84.22,116.14 C 84.9,115.18 85.57,114.23 86.24,113.28 C 87.32,113.83 88.41,114.39 89.5,114.94 C 88.3,117.19 87.68,119.93 85.97,121.81 C 81.66,122.56 77.28,121.37 72.94,121.84 C 71.3,122.07 70.76,123.9 69.74,124.96 C 72.51,126.38 75.34,127.68 78.1,129.12 C 78.71,128.22 79.29,127.32 79.86,126.4 C 80.95,126.93 82.04,127.47 83.13,128 C 81.42,131.14 80.18,134.5 78.48,137.63 C 77.72,139.45 75.71,137.33 74.55,137.08 C 74.81,136.4 75.34,135.03 75.61,134.35 C 68.23,130.58 60.78,126.98 53.26,123.51 C 52.93,124.14 52.27,125.38 51.94,126.01 C 50.77,125.36 49.59,124.71 48.43,124.05 C 51.94,118.72 52.92,111.13 59.07,108.01 M 55.64,117.93 C 56.41,118.29 57.96,119.02 58.73,119.38 C 58.92,119.11 59.3,118.57 59.49,118.3 C 60.01,121.55 64.35,121.8 66.77,123.34 C 69.28,119.75 67.84,114.62 63.46,113.42 C 59.95,111.91 56.88,114.89 55.64,117.93 z"
       id="path2726"
       style="opacity:1;fill:#020202" />
    <path
       d="M 119.4,107.69 C 121.17,107.69 122.93,107.68 124.7,107.66 C 124.75,110.22 124.78,112.78 124.68,115.34 C 122.93,115.31 121.17,115.28 119.42,115.27 C 119.37,112.74 119.39,110.21 119.4,107.69 z"
       id="path2728"
       style="opacity:1;fill:#020202" />
    <path
       d="M 146.27,106.53 C 148.08,106.52 149.88,106.51 151.69,106.51 C 151.71,108.99 151.7,111.47 151.56,113.95 C 149.82,113.93 148.08,113.93 146.35,113.94 C 146.33,111.47 146.31,109 146.27,106.53 z"
       id="path2730"
       style="opacity:1;fill:#020202" />
    <path
       d="M 187.93,121.11 C 193.35,115.68 200.11,111.01 207.9,110.04 C 219.92,107.49 232.98,111.61 241.4,120.55 C 235.83,125.87 230.27,131.21 224.96,136.8 C 221.34,133.34 215.84,131.19 210.95,133.09 C 208.31,133.81 206.25,135.66 204.41,137.59 C 198.9,132.11 193.59,126.44 187.93,121.11 z"
       id="path2732"
       style="opacity:1;fill:#020202" />
    <path
       d="M 373,118.95 C 373.84,118.72 375.51,118.26 376.34,118.02 C 378.02,122.84 380.39,127.46 381.36,132.5 C 382.29,137.41 378.04,142.68 372.98,142.55 C 370.28,142.81 367.96,141.37 365.77,140.02 C 364.01,143.96 360.18,146.39 357.69,149.84 C 358.06,150.77 358.43,151.71 358.81,152.64 C 357.56,153.12 356.31,153.59 355.05,154.04 C 354.1,151.56 353.09,149.11 352.18,146.61 C 355.39,143.03 359.65,140.3 361.97,135.99 C 361.63,134.99 361.3,133.98 360.97,132.98 C 358.17,133.99 355.41,135.14 352.59,136.1 C 352.78,136.92 353.16,138.54 353.35,139.35 C 352.16,139.76 350.98,140.18 349.8,140.6 C 348.45,136.85 346.98,133.15 345.66,129.39 C 346.52,129.08 348.23,128.47 349.09,128.17 C 349.47,128.79 350.25,130.04 350.64,130.66 C 358.15,127.66 365.77,124.91 373.37,122.14 C 373.25,121.07 373.11,120.01 373,118.95 M 364.34,131.58 C 365.23,133.34 365.92,135.46 367.82,136.43 C 371,138.3 375.32,136.13 376.77,133 C 377.85,131.11 376.51,129.08 376.05,127.23 C 372.18,128.78 368.23,130.1 364.34,131.58 z"
       id="path2734"
       style="opacity:1;fill:#020202" />
    <path
       d="M 278.28,120.61 C 280.08,120.62 281.88,120.62 283.69,120.62 C 283.66,123.14 283.67,125.66 283.63,128.18 C 281.89,128.17 280.15,128.18 278.41,128.2 C 278.32,125.67 278.32,123.14 278.28,120.61 z"
       id="path2736"
       style="opacity:1;fill:#020202" />
    <path
       d="M 266.28,121.53 C 268.09,121.56 269.9,121.58 271.72,121.58 C 271.71,124.06 271.72,126.54 271.7,129.02 C 269.88,129.02 268.08,128.98 266.27,128.93 C 266.25,126.46 266.25,123.99 266.28,121.53 z"
       id="path2738"
       style="opacity:1;fill:#020202" />
    <path
       d="M 300.06,121.17 C 301.87,121.16 303.68,121.14 305.49,121.14 C 305.44,123.61 305.44,126.08 305.49,128.55 C 303.69,128.59 301.89,128.63 300.1,128.68 C 300.1,126.18 300.1,123.68 300.06,121.17 z"
       id="path2740"
       style="opacity:1;fill:#020202" />
    <path
       d="M 134.11,122.82 C 135.85,122.87 137.59,122.91 139.34,122.94 C 139.44,125.44 139.46,127.93 139.44,130.43 C 137.66,130.44 135.89,130.45 134.12,130.48 C 133.91,127.93 133.92,125.37 134.11,122.82 z"
       id="path2742"
       style="opacity:1;fill:#020202" />
    <path
       d="M 142.36,122.09 C 144.16,122.01 145.97,122.02 147.78,122.11 C 147.73,124.58 147.73,127.05 147.73,129.53 C 145.92,129.51 144.12,129.49 142.32,129.47 C 142.37,127.01 142.36,124.55 142.36,122.09 z"
       id="path2744"
       style="opacity:1;fill:#020202" />
    <path
       d="M 113.43,124.32 C 115.21,124.3 117,124.3 118.78,124.32 C 118.8,126.76 118.78,129.2 118.78,131.64 C 117,131.63 115.21,131.63 113.43,131.63 C 113.44,129.19 113.44,126.76 113.43,124.32 z"
       id="path2746"
       style="opacity:1;fill:#020202" />
    <path
       d="M 120.53,123.84 C 122.32,123.83 124.1,123.83 125.89,123.81 C 126.11,126.32 126.09,128.85 125.85,131.36 C 124.1,131.33 122.36,131.35 120.62,131.37 C 120.57,128.86 120.56,126.35 120.53,123.84 z"
       id="path2748"
       style="opacity:1;fill:#020202" />
    <path
       d="M 227.39,140.54 C 232.71,134.71 238.52,129.34 244.09,123.75 C 250.04,131.81 252.66,142.26 250.81,152.14 C 248.17,168.34 233.32,181.69 216.79,181.89 C 216.88,174.25 216.8,166.6 216.84,158.96 C 222.5,157.88 227.4,153.24 228.15,147.43 C 228.63,145.09 227.7,142.83 227.39,140.54 z"
       id="path2750"
       style="opacity:1;fill:#020202" />
    <path
       d="M 185.1,124.77 C 191.08,130.2 196.48,136.21 202.27,141.84 C 200.29,147.87 203.44,154.06 208.39,157.52 C 208.4,157.79 208.42,158.34 208.43,158.62 C 208.59,158.51 208.9,158.28 209.06,158.16 C 210.23,158.08 211.39,158.24 212.54,158.65 C 212.63,166.43 212.55,174.22 212.54,182.01 C 202.07,181.28 191.88,175.96 185.72,167.39 C 176.38,155.32 176.16,137.11 185.1,124.77 z"
       id="path2752"
       style="opacity:1;fill:#020202" />
    <path
       d="M 267.38,143.34 C 267.35,140.82 267.39,138.29 267.54,135.77 C 269.24,135.77 270.95,135.76 272.67,135.75 C 272.95,138.22 273.57,140.98 272.64,143.33 C 270.88,143.44 269.13,143.35 267.38,143.34 z"
       id="path2754"
       style="opacity:1;fill:#020202" />
    <path
       d="M 44.03,137.22 C 46.96,136.82 49.78,138.13 52.62,138.66 C 52.43,139.61 52.06,141.52 51.87,142.48 C 50.24,142.36 48.61,142.27 46.99,142.2 C 46.2,144.37 45.51,146.57 44.88,148.79 C 48.12,149.91 51.44,150.74 54.77,151.51 C 55.18,149.65 55.61,147.81 56,145.96 C 55.07,145.57 54.14,145.18 53.21,144.79 C 53.5,143.58 53.79,142.39 54.09,141.19 C 57.4,142.26 60.76,143.17 64.16,143.88 C 63.94,144.94 63.72,146.01 63.49,147.08 C 62.72,147.62 61.97,148.18 61.23,148.77 C 61.41,148.29 61.76,147.32 61.93,146.83 C 58.76,146.49 59.47,150.68 58.39,152.55 C 61.78,153.54 65.19,154.46 68.59,155.44 C 69.3,153.19 70.35,150.96 70.44,148.58 C 69.95,146.42 67.33,145.93 65.82,144.66 C 66.43,143.52 67.04,142.39 67.66,141.26 C 70.34,142.57 73.06,143.81 75.75,145.09 C 74.03,151.72 72.15,158.31 70.42,164.94 C 69.12,164.59 67.83,164.24 66.55,163.89 C 66.8,163.33 67.31,162.22 67.57,161.66 C 65.64,160.33 63.29,160.06 61.07,159.53 C 55.13,158.04 49.25,156.34 43.32,154.81 C 43.07,155.56 42.58,157.06 42.33,157.81 C 41.11,157.34 39.91,156.86 38.7,156.39 C 40.58,150.03 42.04,143.54 44.03,137.22 z"
       id="path2756"
       style="opacity:1;fill:#020202" />
    <path
       d="M 301.05,136.73 C 302.67,136.71 304.3,136.68 305.93,136.69 C 306,139.21 306,141.74 305.95,144.27 C 304.33,144.21 302.71,144.16 301.1,144.11 C 301.05,141.65 301.02,139.19 301.05,136.73 z"
       id="path2758"
       style="opacity:1;fill:#020202" />
    <path
       d="M 307.01,137.4 C 308.55,137.35 310.09,137.28 311.64,137.21 C 311.66,139.69 311.69,142.17 311.78,144.65 C 310.2,144.68 308.63,144.72 307.07,144.75 C 307.01,142.3 307,139.85 307.01,137.4 z"
       id="path2760"
       style="opacity:1;fill:#020202" />
    <path
       d="M 316.09,137.09 C 317.93,137.11 319.77,137.11 321.61,137.12 C 321.66,139.58 321.73,142.05 321.71,144.52 C 319.8,144.54 317.9,144.55 316.01,144.58 C 315.88,142.08 315.95,139.58 316.09,137.09 z"
       id="path2762"
       style="opacity:1;fill:#020202" />
    <path
       d="M 139.54,138.25 C 141.44,138.28 143.33,138.31 145.22,138.38 C 145.18,140.79 145.17,143.2 145.2,145.61 C 143.34,145.65 141.48,145.66 139.62,145.67 C 139.63,143.19 139.61,140.72 139.54,138.25 z"
       id="path2764"
       style="opacity:1;fill:#020202" />
    <path
       d="M 146.36,138.07 C 148.12,138.05 149.87,138.04 151.63,138.05 C 151.65,140.55 151.64,143.05 151.66,145.55 C 149.87,145.51 148.08,145.47 146.28,145.45 C 146.35,142.99 146.35,140.53 146.36,138.07 z"
       id="path2766"
       style="opacity:1;fill:#020202" />
    <path
       d="M 213.42,138.49 C 219.04,136.97 224.54,143.86 221.54,148.98 C 219.29,154.27 210.69,154.22 208.43,148.98 C 206.04,144.89 209.03,139.51 213.42,138.49 z"
       id="path2768"
       style="opacity:1;fill:#020202" />
    <path
       d="M 282.67,137.94 C 284.5,137.94 286.33,137.94 288.17,137.92 C 288.16,140.43 288.16,142.95 288.14,145.46 C 286.29,145.48 284.43,145.5 282.58,145.51 C 282.68,142.99 282.68,140.46 282.67,137.94 z"
       id="path2770"
       style="opacity:1;fill:#020202" />
    <path
       d="M 290.94,137.47 C 292.75,137.49 294.57,137.5 296.39,137.52 C 296.38,139.94 296.39,142.37 296.46,144.79 C 294.67,144.92 292.89,145.04 291.11,145.18 C 291.02,142.61 290.95,140.04 290.94,137.47 z"
       id="path2772"
       style="opacity:1;fill:#020202" />
    <path
       d="M 153.71,138.79 C 155.57,138.82 157.43,138.86 159.28,138.88 C 159.26,141.33 159.28,143.78 159.34,146.24 C 157.44,146.26 155.54,146.27 153.64,146.3 C 153.65,143.8 153.66,141.29 153.71,138.79 z"
       id="path2774"
       style="opacity:1;fill:#020202" />
    <path
       d="M 108.9,140.42 C 110.7,140.36 112.51,140.34 114.31,140.33 C 114.28,142.8 114.28,145.28 114.3,147.76 C 112.52,147.77 110.74,147.77 108.96,147.77 C 108.93,145.32 108.95,142.87 108.9,140.42 z"
       id="path2776"
       style="opacity:1;fill:#020202" />
    <path
       d="M 119.7,140.06 C 121.61,140.05 123.51,140.05 125.42,140.05 C 125.39,142.51 125.38,144.96 125.38,147.42 C 123.49,147.4 121.6,147.38 119.71,147.38 C 119.74,144.94 119.73,142.5 119.7,140.06 z"
       id="path2778"
       style="opacity:1;fill:#020202" />
    <path
       d="M 93.45,150.08 C 95.23,150.05 97.02,150.08 98.81,150.13 C 98.76,152.64 98.73,155.14 98.7,157.65 C 96.97,157.69 95.25,157.72 93.52,157.76 C 93.46,155.2 93.48,152.64 93.45,150.08 z"
       id="path2780"
       style="opacity:1;fill:#020202" />
    <path
       d="M 287.16,152.29 C 288.98,152.26 290.81,152.24 292.64,152.23 C 292.65,154.75 292.66,157.27 292.66,159.79 C 290.82,159.79 288.99,159.78 287.17,159.76 C 287.17,157.27 287.15,154.78 287.16,152.29 z"
       id="path2782"
       style="opacity:1;fill:#020202" />
    <path
       d="M 308.41,152.2 C 310.18,152.25 311.96,152.29 313.74,152.33 C 313.69,154.8 313.69,157.27 313.73,159.74 C 311.96,159.76 310.18,159.78 308.41,159.8 C 308.36,157.27 308.36,154.73 308.41,152.2 z"
       id="path2784"
       style="opacity:1;fill:#020202" />
    <path
       d="M 273.68,153.36 C 274.39,153.24 275.79,153.01 276.49,152.89 C 276.49,153.45 276.48,154.55 276.47,155.11 C 276.52,154.58 276.62,153.53 276.67,153.01 C 277.26,153.11 278.44,153.31 279.03,153.41 C 279.17,155.79 279.02,158.17 278.87,160.54 C 277.14,160.51 275.41,160.49 273.69,160.48 C 273.71,158.1 273.7,155.73 273.68,153.36 z"
       id="path2786"
       style="opacity:1;fill:#020202" />
    <path
       d="M 127.16,155.29 C 128.93,155.28 130.7,155.29 132.46,155.3 C 132.45,157.76 132.45,160.22 132.49,162.68 C 130.7,162.7 128.91,162.71 127.12,162.7 C 127.14,160.23 127.16,157.76 127.16,155.29 z"
       id="path2788"
       style="opacity:1;fill:#020202" />
    <path
       d="M 355.43,155.65 C 356.64,155.36 357.85,155.09 359.07,154.81 C 359.62,155.79 359.34,157.78 360.99,157.69 C 370.59,159.63 380.3,160.95 389.92,162.81 C 390.29,164.21 390.84,165.59 390.84,167.07 C 388.09,169.46 384.42,170.44 381.27,172.19 C 375.32,175.39 369.06,177.96 363.09,181.13 C 363.3,181.95 363.51,182.77 363.73,183.59 C 362.4,183.71 361.08,183.82 359.75,183.91 C 359.39,180.01 358.57,176.16 358.08,172.28 C 359.28,172.23 360.49,172.2 361.7,172.16 C 361.89,172.85 362.27,174.24 362.45,174.93 C 364.08,174.05 365.71,173.19 367.31,172.27 C 366.5,169.34 366.22,166.3 365.8,163.3 C 364.06,162.96 362.33,162.65 360.59,162.36 C 360.65,163.2 360.77,164.87 360.83,165.71 C 359.6,165.94 358.38,166.18 357.16,166.41 C 356.66,162.81 356.04,159.23 355.43,155.65 M 370.08,163.64 C 370.14,166.05 370.41,168.46 370.8,170.85 C 374.59,169.21 378.26,167.29 382,165.53 C 378.04,164.83 374.05,164.28 370.08,163.64 z"
       id="path2790"
       style="opacity:1;fill:#020202" />
    <path
       d="M 119.85,155.23 C 121.73,155.26 123.61,155.29 125.49,155.33 C 125.5,157.78 125.5,160.23 125.49,162.69 C 123.6,162.71 121.72,162.74 119.83,162.76 C 119.82,160.25 119.83,157.74 119.85,155.23 z"
       id="path2792"
       style="opacity:1;fill:#020202" />
    <path
       d="M 36.58,166.37 C 37.88,166.4 39.18,166.42 40.48,166.45 C 40.47,167.13 40.47,168.48 40.47,169.15 C 49.87,173.24 59.4,177.01 68.8,181.1 C 68.75,182.8 70.05,185.77 67.61,186.3 C 58.33,189.15 48.83,191.29 39.37,193.44 C 39.2,194.05 38.86,195.28 38.69,195.89 C 37.49,195.97 36.29,196.05 35.09,196.14 C 35.17,191.63 35.46,187.13 35.51,182.62 C 36.82,182.67 38.14,182.71 39.45,182.76 C 39.42,184.07 39.4,185.38 39.37,186.7 C 46.64,185.41 53.81,183.6 61.07,182.28 C 54.41,178.97 47.24,176.81 40.21,174.41 C 40.19,175.23 40.13,176.87 40.11,177.69 C 38.78,177.67 37.45,177.65 36.13,177.63 C 36.28,173.87 36.46,170.12 36.58,166.37 z"
       id="path2794"
       style="opacity:1;fill:#020202" />
    <path
       d="M 320.1,167.18 C 321.94,167.2 323.78,167.24 325.63,167.29 C 325.63,169.76 325.59,172.22 325.58,174.69 C 323.73,174.72 321.88,174.73 320.03,174.75 C 319.93,172.23 319.94,169.7 320.1,167.18 z"
       id="path2796"
       style="opacity:1;fill:#020202" />
    <path
       d="M 333.4,167.2 C 335.3,167.22 337.22,167.22 339.13,167.28 C 339.13,168.97 339.15,170.67 339.19,172.37 C 339.57,172.39 340.31,172.44 340.68,172.46 C 339.63,172.89 338.89,173.67 338.46,174.81 C 336.76,174.77 335.07,174.74 333.38,174.72 C 333.39,172.21 333.37,169.71 333.4,167.2 z"
       id="path2798"
       style="opacity:1;fill:#020202" />
    <path
       d="M 312.56,167.68 C 314.35,167.7 316.16,167.73 317.96,167.76 C 317.91,170.31 317.89,172.85 317.83,175.4 C 316.07,175.39 314.32,175.39 312.57,175.38 C 312.55,172.81 312.55,170.24 312.56,167.68 z"
       id="path2800"
       style="opacity:1;fill:#020202" />
    <path
       d="M 153.03,170.94 C 154.89,170.45 156.82,170.72 158.7,170.87 C 158.63,173.33 158.59,175.8 158.55,178.27 C 156.76,178.28 154.97,178.3 153.19,178.34 C 153.06,175.88 152.87,173.41 153.03,170.94 z"
       id="path2802"
       style="opacity:1;fill:#020202" />
    <path
       d="M 295.39,169.13 C 297.3,169.12 299.23,169.12 301.15,169.15 C 301.08,171.6 301.09,174.05 301.11,176.5 C 299.22,176.49 297.33,176.48 295.45,176.47 C 295.46,174.02 295.43,171.58 295.39,169.13 z"
       id="path2804"
       style="opacity:1;fill:#020202" />
    <path
       d="M 164.61,171.36 C 166.51,171.39 168.41,171.41 170.31,171.45 C 170.28,173.88 170.28,176.31 170.32,178.75 C 168.39,178.77 166.46,178.76 164.53,178.75 C 164.62,176.29 164.65,173.82 164.61,171.36 z"
       id="path2806"
       style="opacity:1;fill:#020202" />
    <path
       d="M 263.26,171.19 C 265.08,171.17 266.9,171.18 268.73,171.2 C 268.71,173.65 268.72,176.11 268.74,178.57 C 266.91,178.58 265.08,178.58 263.26,178.59 C 263.27,176.12 263.27,173.66 263.26,171.19 z"
       id="path2808"
       style="opacity:1;fill:#020202" />
    <path
       d="M 98.21,173.59 C 100,173.7 101.79,173.78 103.57,173.88 C 103.5,176.39 103.49,178.89 103.48,181.4 C 101.73,181.33 99.99,181.28 98.24,181.27 C 98.14,178.71 98.12,176.15 98.21,173.59 z"
       id="path2810"
       style="opacity:1;fill:#020202" />
    <path
       d="M 137.28,180.38 C 137.24,177.87 137.26,175.35 137.44,172.85 C 139.19,172.94 140.95,173.03 142.71,173.12 C 142.73,175.54 142.72,177.96 142.72,180.38 C 140.9,180.38 139.09,180.38 137.28,180.38 z"
       id="path2812"
       style="opacity:1;fill:#020202" />
    <path
       d="M 359.21,200.09 C 359.43,195.86 359.68,191.64 359.73,187.42 C 360.61,187.45 362.38,187.51 363.26,187.54 C 363.28,188.31 363.3,189.86 363.31,190.63 C 371.77,190.64 380.18,191.71 388.64,191.7 C 388.64,190.96 388.65,189.49 388.66,188.75 C 389.63,188.74 391.56,188.74 392.53,188.74 C 392.32,194.44 392.44,200.28 391.01,205.83 C 388.81,212.31 378.32,211.85 376.75,205.14 C 375.79,209.55 371.27,211.9 367.03,211.7 C 366.87,211.96 366.55,212.46 366.39,212.71 C 366.4,212.3 366.43,211.48 366.45,211.07 C 361.21,210.44 359.14,204.67 359.21,200.09 M 362.93,196.43 C 362.37,199.81 362.89,204.1 366.69,205.3 C 366.8,205.67 367.01,206.4 367.12,206.77 C 367.06,206.39 366.95,205.62 366.9,205.24 C 371.81,206.5 375.09,201.22 374.37,196.87 C 370.56,196.62 366.75,196.3 362.93,196.43 M 377.59,197.27 C 377.98,199.3 377.87,201.84 379.7,203.24 C 381.25,204.91 384.05,205.02 385.94,203.91 C 388.33,202.78 388.16,199.71 388.7,197.51 C 385,197.35 381.29,197.14 377.59,197.27 z"
       id="path2814"
       style="opacity:1;fill:#020202" />
    <path
       d="M 133.66,192.69 C 139.05,191.56 144.63,191.64 150.09,192.19 C 173.98,193.54 196.86,204.92 213.55,221.87 C 227.71,207.59 246.12,197.39 265.88,193.49 C 274.98,192.3 284.3,190.91 293.43,192.63 C 293.54,193.74 293.61,194.86 293.66,195.99 C 293.67,236.33 293.64,276.67 293.67,317.01 C 293.65,318.47 293.56,319.94 293.45,321.4 C 272.28,322.16 250.16,324.43 231.58,335.51 C 226.44,338.92 221.37,342.74 217.77,347.83 C 216.62,349.44 215.42,351 214.14,352.49 C 210.99,351.67 210.18,348.15 208.1,346.05 C 199.08,335.56 185.95,329.73 172.87,326.12 C 160.14,323.13 147.08,321.7 134.01,321.51 C 133.74,320.36 133.43,319.2 133.45,318.02 C 133.46,277.69 133.46,237.37 133.45,197.04 C 133.47,195.58 133.56,194.14 133.66,192.69 M 137.56,196.14 C 137.67,236.6 137.61,277.06 137.6,317.52 C 152.59,317.78 167.65,319.88 181.89,324.72 C 193.2,328.08 203.36,334.71 211.45,343.25 C 211.23,304.05 211.52,264.84 211.32,225.64 C 192.57,205.82 164.95,194.28 137.56,196.14 M 273.18,196.47 C 271.3,206.02 269.45,215.58 267.74,225.17 C 274.43,223.3 280.94,220.87 287.55,218.79 C 287.51,218.38 287.43,217.57 287.38,217.16 C 287.77,217.41 288.56,217.91 288.95,218.15 L 289.55,217.82 C 289.62,210.61 289.5,203.4 289.57,196.18 C 284.11,195.9 278.64,196.11 273.18,196.47 M 215.41,226.2 C 215.64,265.41 215.38,304.61 215.53,343.82 C 222.73,335.36 232.43,329.23 242.86,325.57 C 246.98,314.32 250.12,302.73 253.88,291.35 C 247.39,292.83 241.12,295.08 234.68,296.74 C 245.03,276.86 255.8,257.2 266.01,237.25 C 260.42,238.5 254.75,239.42 249.13,240.5 C 250.46,236.92 252.35,233.59 253.98,230.14 C 259.59,219.22 264.73,208.08 270.21,197.09 C 249.4,200.2 229.66,210.75 215.41,226.2 M 288,220.22 C 278.61,239.12 268.81,257.81 259.4,276.7 C 264.95,275.58 270.61,275.1 276.18,274.03 C 267.08,290.32 258.6,306.93 249.59,323.27 C 262.58,319.69 276.03,317.59 289.52,317.6 C 289.62,285.62 289.53,253.65 289.55,221.67 C 289.4,221.28 289.08,220.49 288.92,220.09 C 288.69,220.12 288.23,220.18 288,220.22 z"
       id="path2816"
       style="opacity:1;fill:#020202" />
    <path
       d="M 64.37,201.73 C 65.67,201.55 66.98,201.39 68.29,201.23 C 68.71,205.38 69.31,209.51 69.59,213.67 C 68.3,213.82 67,213.97 65.71,214.13 C 65.64,213.38 65.52,211.89 65.45,211.15 C 57.19,211.84 48.92,212.61 40.7,213.72 C 40.78,214.47 40.93,215.95 41,216.69 C 40.09,216.85 38.27,217.15 37.37,217.3 C 36.29,213.13 36.44,208.79 35.72,204.57 C 37.02,204.51 38.33,204.46 39.63,204.41 C 39.72,205.19 39.91,206.74 40,207.52 C 48.19,207.07 56.31,205.84 64.49,205.26 C 64.46,204.08 64.41,202.91 64.37,201.73 z"
       id="path2818"
       style="opacity:1;fill:#020202" />
    <path
       d="M 355.77,224.51 C 356.92,220.92 357.48,217.15 358.8,213.61 C 359.92,214.02 361.04,214.42 362.17,214.82 C 361.98,215.61 361.79,216.39 361.61,217.18 C 370.13,223.13 379.06,228.46 387.66,234.31 C 387.24,235.75 386.82,237.19 386.43,238.64 C 376.33,239.35 366.22,239.95 356.11,240.45 C 355.75,241.25 355.38,242.05 354.99,242.85 C 353.74,242.62 352.53,242.32 351.32,242.01 C 352.39,238.2 353.42,234.38 354.1,230.49 C 355.36,230.77 356.62,231.06 357.89,231.36 C 357.79,232.1 357.58,233.57 357.48,234.31 C 359.16,234.28 360.84,234.26 362.52,234.25 C 363.45,231.21 364.18,228.13 364.9,225.04 C 363.48,224.17 362.07,223.29 360.66,222.41 C 360.25,223.45 359.84,224.5 359.43,225.54 C 358.52,225.29 356.69,224.77 355.77,224.51 M 368.51,226.85 C 367.89,229.2 367.32,231.56 366.84,233.94 C 370.86,233.95 374.87,233.59 378.89,233.51 C 375.53,231.12 371.94,229.11 368.51,226.85 z"
       id="path2820"
       style="opacity:1;fill:#020202" />
    <path
       d="M 42.86,229.23 C 51.93,226.31 61.24,224.23 70.37,221.53 C 71.03,222.71 71.7,223.9 72.37,225.08 C 66.66,232.17 60.45,238.87 54.72,245.91 C 60.53,244.16 66.32,242.35 72.26,241.06 C 71.84,239.77 71.42,238.47 71.02,237.18 C 72.31,236.75 73.62,236.38 74.94,236.05 C 75.86,239.68 77.03,243.24 78.01,246.86 C 76,247.57 73.41,248.08 73.35,245.09 C 65.32,247.32 57.39,249.9 49.34,252.05 C 49.62,253.03 49.9,254.01 50.18,254.99 C 48.99,255.32 47.79,255.64 46.6,255.96 C 45.88,253.4 45.15,250.86 44.37,248.32 C 50.45,241.3 57.03,234.73 63.29,227.87 C 56.84,229.67 50.44,231.67 44.04,233.63 C 44.46,234.77 44.88,235.92 45.3,237.06 C 44.08,237.52 42.87,237.99 41.66,238.47 C 40.41,234.87 39.44,231.19 38.25,227.57 C 39.58,227.37 40.92,227.17 42.25,226.99 C 42.4,227.55 42.71,228.67 42.86,229.23 z"
       id="path2822"
       style="opacity:1;fill:#020202" />
    <path
       d="M 170.15,233.02 C 173.19,230.57 178.13,230.23 181.04,233.07 C 184.7,235.94 186.31,240.41 188.37,244.41 C 192.76,243.34 197.54,243.41 201.74,245.18 C 204.42,246.33 206.57,248.89 206.72,251.88 C 207.05,257.49 203.4,262.24 199.87,266.19 C 202.74,270.6 206.28,275.36 205.54,280.94 C 205.4,284.47 202.22,287.08 199.02,287.93 C 195.31,289.1 191.42,288.33 187.71,287.61 C 185.95,291.55 183.94,295.73 180.27,298.25 C 177.59,300.17 173.66,300.25 171.02,298.21 C 166.94,295.48 164.92,290.82 163.07,286.47 C 158.54,286.92 153.73,287.39 149.43,285.53 C 145.87,284.03 143.97,279.74 144.8,276.05 C 145.65,271.52 148.51,267.8 151.35,264.33 C 148.07,259.94 144.87,254.59 146.02,248.9 C 146.29,245.78 149.22,243.79 151.91,242.81 C 155.77,242.04 159.76,242.44 163.64,242.91 C 165.29,239.32 167.11,235.65 170.15,233.02 M 172.64,234.74 C 169.53,236.87 167.93,240.39 166.22,243.62 C 168.61,244.56 171.05,245.41 173.41,246.44 C 177.3,249.14 181.35,245.31 185.37,244.82 C 183.8,241.21 182.12,237.42 178.99,234.88 C 177.23,233.34 174.49,233.38 172.64,234.74 M 148.76,248.46 C 147.2,253.58 150.51,258.16 153.15,262.21 C 155.53,260.24 158.05,258.44 160.59,256.69 C 161.06,252.96 161.95,249.3 162.87,245.67 C 158.15,244.69 151.94,243.96 148.76,248.46 M 165.37,246.45 C 164.61,249.13 164.03,251.87 163.39,254.59 C 166.53,252.61 169.81,250.89 173.07,249.13 C 170.52,248.18 167.97,247.25 165.37,246.45 M 179.7,249.6 C 182.5,251.24 185.19,253.06 187.85,254.91 C 187.29,252.44 186.77,249.96 186.25,247.49 C 184.02,248.04 181.83,248.74 179.7,249.6 M 188.84,246.87 C 189.77,250.18 190.29,253.58 190.91,256.95 C 193.13,259.47 195.92,261.52 198.03,264.19 C 200.98,260.71 204.22,256.7 204.11,251.89 C 202.08,245.54 194.12,246.37 188.84,246.87 M 163.23,257.98 C 162.73,262.66 162.78,267.37 163.07,272.07 C 166.89,275.02 170.92,277.7 175.23,279.87 C 179.49,277.7 183.87,275.65 187.82,272.95 C 189.06,268.45 188.49,263.47 188.28,258.79 C 184.42,255.87 180.42,253.12 176.14,250.85 C 171.66,252.88 167.35,255.29 163.23,257.98 M 155.43,264.37 C 156.65,266.55 158.7,268.12 160.59,269.71 C 160.06,266.49 160.14,263.24 160.41,260.01 C 158.68,261.38 156.92,262.74 155.43,264.37 M 191.17,261 C 191.3,264.22 191.29,267.45 191.08,270.67 C 192.81,269.25 194.52,267.81 196.23,266.38 C 194.65,264.49 192.94,262.71 191.17,261 M 148.1,280.99 C 151.58,285.08 157.75,284.19 162.53,283.7 C 161.58,280.35 161.13,276.91 160.5,273.5 C 158.06,271.17 155.35,269.11 153.26,266.43 C 150.09,270.4 145.54,275.61 148.1,280.99 M 191.02,274.34 C 189.97,277.86 189.67,281.61 188.47,285.11 C 191.76,285.54 195.19,286.22 198.45,285.26 C 201.15,284.46 203.31,281.82 203.04,278.93 C 202.36,274.98 200.09,271.61 197.94,268.34 C 195.78,270.51 193.31,272.32 191.02,274.34 M 163.39,275.78 C 163.94,278.18 164.44,280.59 164.94,283.01 C 167.29,282.65 169.56,281.96 171.8,281.2 C 168.91,279.52 166.14,277.66 163.39,275.78 M 178.72,281.74 C 181.09,282.65 183.48,283.54 185.94,284.2 C 186.6,281.59 187.19,278.95 187.67,276.3 C 184.74,278.2 181.43,279.51 178.72,281.74 M 165.99,285.84 C 167.4,289.97 169.54,294.32 173.56,296.47 C 175.49,297.65 177.9,296.83 179.46,295.42 C 181.97,293.11 183.69,290.11 184.99,286.99 C 181.27,286.07 178.04,283.79 174.28,283.03 C 171.63,284.27 168.8,285.06 165.99,285.84 z"
       id="path2824"
       style="opacity:1;fill:#020202" />
    <path
       d="M 350.07,245.01 C 351.25,245.56 352.42,246.13 353.6,246.7 C 353.16,247.56 352.71,248.42 352.28,249.29 C 359.48,253.47 367.11,256.85 374.51,260.65 C 375.02,259.84 375.54,259.03 376.07,258.23 C 377.12,258.63 378.17,259.03 379.24,259.43 C 376.5,265.74 374.29,273.04 368.45,277.21 C 363.16,280.99 355.83,279.87 350.76,276.27 C 346.37,273.79 343.16,269.2 343.08,264.06 C 342.72,256.98 347.51,251.24 350.07,245.01 M 349.26,254.97 C 347.47,258.39 346.04,262.79 348.61,266.22 C 352.11,270.81 358.07,274 363.92,273.42 C 368,273.15 370.83,269.66 372.08,266.05 C 364.42,262.46 357.04,258.29 349.26,254.97 z"
       id="path2826"
       style="opacity:1;fill:#020202" />
    <path
       d="M 55.73,266.58 C 62.25,262.95 68.54,258.47 75.93,256.82 C 83.66,255.25 90.18,264.01 88.21,271.11 C 87.13,275.08 83.35,277.19 80.1,279.22 C 75.67,281.74 71.17,284.16 66.71,286.66 C 67.06,287.52 67.4,288.4 67.75,289.28 C 66.65,289.79 65.55,290.32 64.46,290.85 C 62.65,287.06 60.36,283.54 58.46,279.81 C 59.69,279.24 60.93,278.7 62.2,278.23 C 62.53,278.93 63.17,280.34 63.5,281.04 C 67.84,279.27 71.7,276.55 75.96,274.61 C 79.23,273.04 82.71,270.72 83.53,266.94 C 83.17,264.86 82.28,262.64 80.26,261.69 C 77.86,260.54 75.18,261.64 72.94,262.64 C 67.86,265.15 63.1,268.25 58.08,270.87 C 58.62,272 59.17,273.14 59.71,274.27 C 58.59,274.84 57.46,275.41 56.33,275.96 C 54.45,272.69 52.53,269.45 50.84,266.07 C 51.93,265.51 53.01,264.94 54.1,264.36 C 54.5,264.92 55.32,266.02 55.73,266.58 z"
       id="path2828"
       style="opacity:1;fill:#020202" />
    <path
       d="M 170.72,262.63 C 172.72,260.97 175.23,260.82 177.68,261.43 C 178.71,263.08 180.26,264.81 179.63,266.92 C 179.34,270.07 175.24,272.13 172.57,270.44 C 170.64,269.79 170.22,267.63 169.46,266.01 C 169.89,264.89 170.3,263.76 170.72,262.63 z"
       id="path2830"
       style="opacity:1;fill:#020202" />
    <path
       d="M 397.39,293.44 C 399.21,292.86 401.03,292.22 402.77,291.41 C 402.59,291.71 402.25,292.33 402.07,292.63 C 405.07,293.14 406.49,297.29 404.62,299.6 C 403.07,301.96 399.86,301.7 397.62,300.6 C 396.01,298.41 395.96,295.73 397.39,293.44 z"
       id="path2832"
       style="opacity:1;fill:#020202" />
    <path
       d="M 26.62,296.66 C 28.41,294.92 30.96,295.93 32.72,297.15 C 33.08,298.16 33.45,299.17 33.83,300.18 C 33.66,302.86 31.58,304.65 29.11,305.31 C 27.41,304.58 25.88,303.54 24.69,302.12 C 24.56,300.11 24.62,297.78 26.62,296.66 z"
       id="path2834"
       style="opacity:1;fill:#020202" />
    <path
       d="M 387.98,316.52 C 384.6,315.27 384.54,309.5 387.99,308.34 C 389.94,307.99 392.93,307.71 393.83,309.99 C 395.23,312.07 393.92,314.41 393.03,316.38 C 391.36,316.65 389.61,317.28 387.98,316.52 z"
       id="path2836"
       style="opacity:1;fill:#020202" />
    <path
       d="M 37.27,312.19 C 40.01,310.24 44.02,312.3 44.38,315.56 C 44.74,318.86 40.91,321.95 37.81,320.25 C 34.58,318.93 34.23,313.9 37.27,312.19 z"
       id="path2838"
       style="opacity:1;fill:#020202" />
    <path
       d="M 373.85,327.8 C 374.05,323.82 379.07,322.89 381.7,325.28 C 382.15,326.19 382.6,327.09 383.08,328 C 382.75,330.77 380.72,332.76 378.02,333.29 C 375.71,332.46 373.17,330.63 373.85,327.8 z"
       id="path2840"
       style="opacity:1;fill:#020202" />
    <path
       d="M 47.18,329.97 C 48.95,325.99 55.62,327.78 55.62,332.06 C 56.06,334.91 53.27,336.48 51,337.28 C 47.71,336.76 45.31,332.98 47.18,329.97 z"
       id="path2842"
       style="opacity:1;fill:#020202" />
    <path
       d="M 339.76,337.61 C 340.8,335.73 342.67,334.28 344.87,334.15 C 348.92,333.83 352.92,334.82 356.9,335.45 C 357.4,335.01 358.42,334.13 358.93,333.7 C 360.26,334.04 361.59,334.39 362.93,334.73 C 362.09,335.78 360.67,336.59 360.37,337.94 C 364.43,342.72 369,347.07 373.1,351.83 C 371.42,352.14 369.75,352.45 368.08,352.74 C 367.25,351.77 366.44,350.83 365.63,349.87 C 364.86,352.48 363.32,354.82 360.82,356.05 C 357.09,356.21 353.43,355.54 350.26,353.52 C 351.84,351.66 353.15,349.48 352.31,346.94 C 351.81,346.9 350.81,346.81 350.31,346.77 C 347.84,348.61 345.61,350.77 343.27,352.76 C 347.06,357.93 351.08,362.92 354.82,368.13 C 353.13,368.23 351.44,368.32 349.76,368.43 C 347.72,365.85 345.72,363.25 343.95,360.49 C 342.21,362.14 338.98,363.27 339.27,366.15 C 339.32,368.08 341.37,369.08 342.61,370.28 C 344.05,370.68 345.49,371.11 346.93,371.54 C 346.86,372.02 346.71,372.98 346.63,373.47 C 342.02,372.35 336.14,370.88 334.48,365.83 C 334.62,364.58 335.14,363.42 335.51,362.24 C 337.4,360.57 339.4,359.02 341.58,357.74 C 340.99,356.88 340.41,356.03 339.82,355.19 C 335.38,358.42 331.04,361.78 326.42,364.75 C 327.23,366.17 327.95,367.66 328.9,369.01 C 330.56,368.89 330.57,365.84 332.5,366.25 C 333.26,367.39 333.91,368.6 334.58,369.81 C 333.56,371.18 332.71,372.65 331.91,374.16 C 333.45,376.5 335.04,378.84 336.12,381.45 C 334.46,381.29 332.81,381.09 331.16,380.9 C 330.8,380.36 330.07,379.3 329.71,378.77 C 328.73,380.07 327.93,381.56 326.68,382.64 C 323.21,383.31 318.48,382.87 316.73,379.3 C 315.21,376.33 317.41,372.81 320.17,371.52 C 322.08,370.98 324.01,371.61 325.84,372.19 C 324.79,370.49 323.76,368.77 322.79,367.03 C 317.8,369.63 313.3,373.16 308.06,375.27 C 310.44,380.56 312.83,385.86 315.13,391.2 C 317.69,391.46 320.57,391.76 322.36,393.87 C 323.73,395.56 321.62,398.6 323.84,399.63 C 321.65,398.72 320.86,401.66 319.05,402.28 C 314.38,404.56 308.98,403.22 304.43,401.31 C 304.47,400.88 304.54,400.02 304.58,399.59 C 308.26,400.93 312.45,402.18 316.15,400.18 C 318.7,399.23 319.88,396.61 319.77,394.03 C 317.49,392 316.23,394.98 315.33,396.74 C 314.15,396.45 312.97,396.19 311.8,395.96 C 312.41,394.76 313.05,393.56 313.7,392.38 C 310.56,393.02 310.03,389.59 308.92,387.48 C 307.01,388.39 305.1,389.31 303.15,390.13 C 303.36,391.26 303.57,392.4 303.77,393.55 C 300.72,393.32 296.52,392.9 295.2,389.66 C 295.75,389.39 296.86,388.85 297.42,388.58 C 296.25,386.32 295.2,384.01 294.21,381.68 C 291.99,382.86 289.65,383.78 287.27,384.58 C 289.27,390.72 291.5,396.78 293.47,402.93 C 291.72,402.39 289.98,401.87 288.23,401.32 C 288.04,400.52 287.65,398.92 287.46,398.12 C 285.68,400.06 283.76,402.66 280.79,402.32 C 277.28,401.89 273.16,399.86 272.65,395.97 C 272.48,393.12 274.64,390.79 277.15,389.78 C 279.84,389.17 282.47,390.32 285.04,390.99 C 284.38,389.28 283.74,387.56 283.14,385.84 C 277.27,387.82 271.51,390.3 265.37,391.28 C 267.04,397.44 268.44,403.67 270.02,409.86 C 268.45,409.39 266.88,408.88 265.31,408.42 C 263.84,403.03 262.46,397.62 261.46,392.13 C 260.25,392.44 259.05,392.75 257.86,393.09 C 256.68,392.13 255.49,391.16 254.3,390.23 C 256.49,389.62 258.69,389.04 260.9,388.49 C 259.64,387.08 257.61,385.92 257.52,383.84 C 256.78,379.61 260.98,376.24 264.9,376.07 C 271.05,375.71 277.02,378.52 281.68,382.39 C 285.81,380.93 290.06,379.76 293.95,377.69 C 299.01,375.02 304.45,373.13 309.5,370.44 C 313.9,367.88 318.12,365.05 322.54,362.55 C 328.29,359.47 333.24,355.18 338.51,351.4 C 344.55,347.31 349.44,341.84 355.06,337.22 C 351.4,336.05 346.21,334.92 343.92,338.93 C 342.53,338.5 341.13,338.06 339.76,337.61 M 351.99,345.09 C 353.86,345.52 355.69,346.17 357.4,347.06 C 357.03,349.49 355.89,351.67 354.77,353.82 C 359.53,354.8 361.43,350 362.2,346.27 C 360.5,344.35 358.73,342.5 356.95,340.66 C 355.2,342.03 353.54,343.5 351.99,345.09 M 320.64,375.9 C 320.36,377.7 320.44,380.9 323.05,380.61 C 325.55,379.67 326.52,376.8 327.45,374.53 C 325.03,373.89 322.4,373.86 320.64,375.9 M 298.06,379.76 C 299.01,382.16 300.13,384.48 301.37,386.75 C 303.36,385.84 305.34,384.9 307.35,383.99 C 306.27,381.73 305.19,379.47 304.15,377.2 C 302.1,378 300.08,378.9 298.06,379.76 M 262.96,380.89 C 260.75,382.81 261.83,385.69 263.11,387.78 C 268.95,387.11 274.58,385.02 279.91,382.62 C 274.91,379.88 268.12,377.09 262.96,380.89 M 278.33,393.3 C 276.15,394.14 274.68,397.64 277.04,399.13 C 281.22,400.79 284.22,396.53 286.09,393.44 C 283.55,392.92 280.75,391.68 278.33,393.3 z"
       id="path2844"
       style="opacity:1;fill:#020202" />
    <path
       d="M 75.6,339.73 C 80.73,343.42 85.39,347.71 90.42,351.52 C 94.89,355.63 100.29,358.43 105.21,361.92 C 105.07,363.39 104.94,364.87 104.8,366.34 C 103.67,365.56 102.55,364.79 101.41,364.03 C 97.73,369.25 94.42,374.72 90.73,379.94 C 90.06,378.51 89.39,377.09 88.69,375.69 C 91.5,370.81 95.01,366.36 97.82,361.47 C 95.83,360.33 93.98,358.95 91.94,357.91 C 87.66,362.68 83.83,367.84 79.85,372.85 C 79.34,371.17 78.83,369.49 78.31,367.83 C 79.68,366.09 81.07,364.37 82.57,362.75 C 80.97,362.12 79.38,361.49 77.8,360.84 C 77.44,359.6 77.1,358.35 76.78,357.11 C 76.14,357.39 74.86,357.95 74.22,358.22 C 74.16,357.67 74.04,356.55 73.98,355.99 C 73.97,356.51 73.93,357.54 73.92,358.06 L 72.34,357.52 C 72.52,360 73,362.44 73.22,364.92 C 73.58,366.1 72.15,366.48 71.48,367.07 C 70.39,361.61 69.64,355.76 71.58,350.41 C 72.15,350.3 73.29,350.09 73.85,349.98 C 74.29,350.57 75.17,351.76 75.61,352.35 C 77.05,350.81 78.33,349.12 79.51,347.38 C 78.1,346.43 76.7,345.5 75.27,344.6 C 75.35,342.97 75.48,341.35 75.6,339.73 M 82.6,350.34 C 81.14,352.33 79.65,354.3 78.08,356.22 C 79.6,357.87 81.73,359.3 84.09,358.93 C 86.39,358.89 87.29,356.44 88.72,355.05 C 86.69,353.46 84.67,351.87 82.6,350.34 z"
       id="path2846"
       style="opacity:1;fill:#020202" />
    <path
       d="M 127.57,365.6 C 130.6,363.55 134.47,364.85 137.09,366.92 C 141.64,370.64 144.12,376.22 145.55,381.79 C 153.27,385.49 161.78,386.83 169.99,389.05 C 175.47,390.66 181.19,390.99 186.82,391.84 C 187.45,393.29 188.09,394.74 188.73,396.19 C 187.34,395.9 185.95,395.6 184.56,395.31 C 183.41,401.78 182.64,408.32 181.45,414.78 C 180.29,413.53 179.14,412.27 177.96,411.06 C 178.64,405.54 179.91,400.07 179.89,394.49 C 177.75,394.47 175.61,394.29 173.54,393.72 C 171.41,399.87 170.38,406.34 168.51,412.58 C 167.09,410.91 165.31,409.32 165,407.04 C 162.66,407.69 160.4,409.04 157.92,408.89 C 154.53,407.98 152.3,404.66 152.08,401.25 C 152.64,400.49 153.2,399.72 153.76,398.97 C 152.98,397.32 152.28,395.64 151.62,393.96 C 153.29,389.62 158.17,391.47 161.46,392.41 C 161.5,392 161.58,391.19 161.61,390.79 C 157.12,389.61 152.44,388.95 148.21,386.95 C 145.98,392.87 144.09,398.92 141.47,404.69 C 139.97,403.96 139.49,402.01 138.44,400.8 C 138.92,399.67 139.41,398.54 139.9,397.42 C 137.43,398.2 134.47,398.66 132.32,396.85 C 129.35,394.4 127.5,389.43 130.17,386.14 C 131.62,384.58 133.9,383.87 135.97,384.45 C 139.19,384.98 141,388.07 142.35,390.74 C 143.03,389 143.73,387.28 144.47,385.58 C 138.81,383.05 132.61,381.72 127.4,378.26 C 124.5,383.95 121.76,389.73 119.03,395.5 C 117.82,393.97 115.35,392.16 116.95,390.03 C 119.05,385.59 121.02,381.08 123.38,376.77 C 122.19,376.05 121,375.34 119.8,374.66 C 119.67,373.23 119.53,371.8 119.4,370.38 C 121.45,371.44 123.51,372.5 125.48,373.71 C 124.68,370.9 124.7,367.22 127.57,365.6 M 127.55,374.13 C 132.59,377.34 138.35,379.11 143.97,381.05 C 141.9,376.03 138.69,370.19 132.92,369.03 C 129.58,368.3 127.97,371.36 127.55,374.13 M 130.71,389.9 C 131.18,391.11 131.22,392.7 132.51,393.39 C 135.3,395.52 138.82,393.97 141.76,393.09 C 139.54,389.45 134.3,385.73 130.71,389.9 M 165.2,391.98 C 164.82,393.55 164.44,395.12 164.09,396.71 C 161.67,396.2 159.27,395.61 156.89,394.93 C 156.26,395.12 155.01,395.51 154.39,395.7 C 154.26,399.65 158.84,397.85 161.38,398.48 C 161.59,399.84 161.8,401.2 162.01,402.56 C 159.67,401.58 155.02,400.31 154.62,404.09 C 157.91,407.23 163.05,406.61 166.32,403.79 C 167.32,400.08 168.14,396.32 169.31,392.66 C 167.94,392.39 166.57,392.17 165.2,391.98 z"
       id="path2848"
       style="opacity:1;fill:#020202" />
    <path
       d="M 203.77,393.96 C 215.13,393.57 226.58,394.02 237.85,392.32 C 238.76,393.61 239.69,394.9 240.62,396.18 C 239.16,396.23 237.71,396.3 236.26,396.37 C 237.23,402.82 237.61,409.34 238.31,415.82 C 236.77,414.94 235.16,414.16 233.73,413.11 C 233.3,407.78 232.56,402.46 232.27,397.12 C 229.9,397.21 227.53,397.34 225.17,397.4 C 225.27,403.86 225.59,410.33 225.5,416.8 C 224.03,415.9 222.59,414.96 221.15,414 C 221.07,412.74 220.98,411.48 220.89,410.23 C 218.75,411.8 215.89,412.74 213.37,411.43 C 210.25,409.51 208.55,406.09 207.19,402.83 C 209.63,402.39 213.94,401.29 212.34,397.88 C 210.27,396.99 207.85,398.17 205.81,397.33 C 205.03,396.26 204.42,395.09 203.77,393.96 M 213.91,397.48 C 215.04,399.11 216.04,400.82 216.92,402.61 C 215.27,404.12 213.21,404.94 211.14,405.68 C 211.11,405.92 211.05,406.42 211.02,406.67 C 214.1,409.13 218.38,407.59 220.97,405.18 C 220.85,402.6 220.85,400.03 220.85,397.45 C 218.53,397.47 216.22,397.49 213.91,397.48 z"
       id="path2850"
       style="opacity:1;fill:#020202" />
  </g>
</svg>
